<?xml version="1.0" encoding="utf-8"?>
<svg viewBox="0 0 350.3 122.8" xmlns="http://www.w3.org/2000/svg">
  <g id="Слой_1" transform="matrix(1, 0, 0, 1, -257.679931640625, -236.229995727539)" style="transform-origin: 257.68px 236.23px;">
    <g id="Слой_5"/>
    <g>
      <path class="st0" d="M295.72,271.07h-7.48c-1.14,0-2.07,0.93-2.07,2.07v41.35c0,1.14-0.93,2.07-2.07,2.07h-12.73&#10;&#9;&#9;&#9;c-1.14,0-2.07-0.93-2.07-2.07V273.1c0-1.13-0.91-2.05-2.04-2.07l-7.54-0.12c-1.13-0.02-2.04-0.94-2.04-2.07v-10.24&#10;&#9;&#9;&#9;c0-1.15,0.95-2.09,2.1-2.07l7.42,0.11c1.15,0.02,2.1-0.91,2.1-2.07V238.3c0-1.14,0.93-2.07,2.07-2.07h12.73&#10;&#9;&#9;&#9;c1.14,0,2.07,0.93,2.07,2.07v16.32c0,1.14,0.93,2.07,2.07,2.07h7.48c1.14,0,2.07,0.93,2.07,2.07V269&#10;&#9;&#9;&#9;C297.79,270.14,296.86,271.07,295.72,271.07z" style="fill: rgb(255, 255, 255);"/>
      <path class="st0" d="M476.73,271.07h-7.48c-1.14,0-2.07,0.93-2.07,2.07v41.35c0,1.14-0.93,2.07-2.07,2.07h-12.73&#10;&#9;&#9;&#9;c-1.14,0-2.07-0.93-2.07-2.07V273.1c0-1.13-0.91-2.05-2.04-2.07l-7.54-0.12c-1.13-0.02-2.04-0.94-2.04-2.07v-10.24&#10;&#9;&#9;&#9;c0-1.15,0.95-2.09,2.1-2.07l7.42,0.11c1.15,0.02,2.1-0.91,2.1-2.07V238.3c0-1.14,0.93-2.07,2.07-2.07h12.73&#10;&#9;&#9;&#9;c1.14,0,2.07,0.93,2.07,2.07v16.32c0,1.14,0.93,2.07,2.07,2.07h7.48c1.14,0,2.07,0.93,2.07,2.07V269&#10;&#9;&#9;&#9;C478.8,270.14,477.87,271.07,476.73,271.07z" style="fill: rgb(255, 255, 255);"/>
      <path class="st0" d="M426.04,262.84l-5.52,6.54c-0.7,0.83-1.92,0.97-2.78,0.33c-2.5-1.85-5.28-2.78-8.35-2.78&#10;&#9;&#9;&#9;c-2.03,0-3.62,0.44-4.77,1.31c-1.15,0.88-1.73,2.05-1.73,3.52c0,2.4,1.8,4.19,5.39,5.39l4.01,1.24c7.83,2.49,12.9,5.35,15.21,8.57&#10;&#9;&#9;&#9;c2.02,2.77,3.04,6.08,3.04,9.95c0,6.08-2.21,11.15-6.64,15.21c-4.61,4.24-10.6,6.36-17.97,6.36c-8.65,0-15.94-2.86-21.88-8.58&#10;&#9;&#9;&#9;c-0.78-0.75-0.8-2-0.09-2.82l6.09-7.05c0.77-0.89,2.15-0.96,2.99-0.13c3.57,3.54,7.5,5.31,11.78,5.31c2.4,0,4.38-0.57,5.95-1.73&#10;&#9;&#9;&#9;c1.57-1.15,2.35-2.74,2.35-4.77c0-2.76-1.75-4.79-5.25-6.08l-3.87-1.38c-5.99-2.12-10.28-4.51-12.86-7.19&#10;&#9;&#9;&#9;c-3.04-3.22-4.56-7.05-4.56-11.47c0-5.53,2.07-10.04,6.22-13.55c3.59-2.86,8.8-4.28,15.62-4.28c6.36,0,12.08,1.66,17.14,4.98&#10;&#9;&#9;&#9;C426.61,260.43,426.85,261.87,426.04,262.84z" style="fill: rgb(255, 255, 255);"/>
      <path class="st0" d="M535.91,258.76L535.91,258.76c0-1.14,0.93-2.07,2.07-2.07h12.73c1.14,0,2.07,0.93,2.07,2.07v55.72&#10;&#9;&#9;&#9;c0,1.14-0.93,2.07-2.07,2.07h-12.73c-1.14,0-2.07-0.93-2.07-2.07v-0.13c0-1.83-2.17-2.71-3.51-1.47c-4.02,3.74-8.98,5.6-14.87,5.6&#10;&#9;&#9;&#9;c-9.03,0-16.38-3.09-22.05-9.26c-5.67-6.17-8.5-13.73-8.5-22.67c0-9.03,2.77-16.59,8.29-22.67c5.53-6.08,12.67-9.12,21.43-9.12&#10;&#9;&#9;&#9;c6.54,0,11.79,1.84,15.76,5.51C533.78,261.49,535.91,260.56,535.91,258.76z M532.87,274.52c-3.13-3.22-7.1-4.84-11.89-4.84&#10;&#9;&#9;&#9;c-4.79,0-8.76,1.61-11.89,4.84c-3.13,3.23-4.7,7.24-4.7,12.03c0,4.79,1.57,8.83,4.7,12.1c3.13,3.27,7.09,4.91,11.89,4.91&#10;&#9;&#9;&#9;c4.79,0,8.75-1.63,11.89-4.91c3.13-3.27,4.7-7.3,4.7-12.1C537.57,281.76,536,277.75,532.87,274.52z" style="fill: rgb(255, 255, 255);"/>
      <path class="st0" d="M566.72,314.48v-55.72c0-1.14,0.93-2.07,2.07-2.07h12.73c1.14,0,2.07,0.93,2.07,2.07v0.34&#10;&#9;&#9;&#9;c0,1.9,2.31,2.76,3.6,1.37c1.19-1.27,2.47-2.3,3.87-3.09c2.77-1.75,6.08-2.62,9.95-2.62c1.7,0,3.5,0.27,5.42,0.81&#10;&#9;&#9;&#9;c1.01,0.29,1.67,1.26,1.53,2.3l-1.56,11.13c-0.18,1.28-1.51,2.15-2.71,1.67c-1.64-0.65-3.49-0.98-5.58-0.98&#10;&#9;&#9;&#9;c-4.88,0-8.62,1.61-11.2,4.84c-2.21,2.76-3.32,7.19-3.32,13.27v26.68c0,1.14-0.93,2.07-2.07,2.07h-12.73&#10;&#9;&#9;&#9;C567.64,316.55,566.72,315.62,566.72,314.48z" style="fill: rgb(255, 255, 255);"/>
      <g>
        <path class="st0" d="M374.53,286.69c0,9.48-3.36,17.28-10.08,23.37c-6.09,5.61-14.15,8.43-24.19,8.43s-18.12-2.82-24.19-8.43&#10;&#9;&#9;&#9;&#9;c-6.74-6.09-10.1-13.88-10.1-23.37c0-9.58,3.36-17.41,10.1-23.5c6.07-5.63,14.15-8.43,24.19-8.43s18.11,2.8,24.19,8.43&#10;&#9;&#9;&#9;&#9;C371.17,269.28,374.53,277.11,374.53,286.69z" style="fill: rgb(255, 255, 255);"/>
        <path class="st191" d="M347.99,303.93l-5.82-3.07c-1.23-0.65-2.71-0.66-3.95-0.01l-5.83,3.05c-3.12,1.63-6.75-1.02-6.15-4.48&#10;&#9;&#9;&#9;&#9;l1.12-6.48c0.24-1.38-0.21-2.78-1.21-3.76l-4.7-4.6c-2.51-2.46-1.12-6.73,2.37-7.23l6.51-0.93c1.38-0.2,2.58-1.06,3.2-2.31&#10;&#9;&#9;&#9;&#9;l2.92-5.89c1.56-3.15,6.06-3.14,7.61,0.02l2.9,5.9c0.62,1.25,1.81,2.12,3.19,2.33l6.51,0.96c3.48,0.51,4.86,4.79,2.34,7.24&#10;&#9;&#9;&#9;&#9;l-4.72,4.58c-1,0.97-1.46,2.38-1.23,3.75l1.1,6.48C354.74,302.94,351.1,305.58,347.99,303.93z" style="fill: rgb(46, 49, 146);"/>
      </g>
      <g>
        <path class="st0" d="M305.18,339.73h6.6c1.59,0,2.77,0.3,3.56,0.9c0.97,0.74,1.45,1.72,1.45,2.94c0,0.64-0.18,1.25-0.53,1.81&#10;&#9;&#9;&#9;&#9;c-0.36,0.56-0.87,0.98-1.54,1.26c0.74,0.14,1.39,0.46,1.97,0.97c0.76,0.69,1.14,1.63,1.14,2.8c0,1.41-0.53,2.51-1.59,3.32&#10;&#9;&#9;&#9;&#9;c-0.88,0.64-1.99,0.97-3.35,0.97h-7.71V339.73z M309.4,345.67h1.93c0.44,0,0.81-0.09,1.11-0.28c0.37-0.23,0.55-0.58,0.55-1.04&#10;&#9;&#9;&#9;&#9;c0-0.48-0.16-0.84-0.48-1.07c-0.23-0.16-0.65-0.24-1.24-0.24h-1.87V345.67z M309.4,351.37h1.97c0.71,0,1.23-0.13,1.56-0.38&#10;&#9;&#9;&#9;&#9;c0.37-0.28,0.55-0.68,0.55-1.21c0-0.48-0.19-0.84-0.55-1.07c-0.32-0.23-0.81-0.35-1.45-0.35h-2.07V351.37z" style="fill: rgb(255, 255, 255);"/>
        <path class="st0" d="M319.35,354.69l2.73-15.38h3.11l4.11,9.02l4.11-9.02h3.11l2.73,15.38h-4.22l-1.24-8.12l-3.87,8.43h-1.24&#10;&#9;&#9;&#9;&#9;l-3.87-8.43l-1.24,8.12H319.35z" style="fill: rgb(255, 255, 255);"/>
        <path class="st0" d="M352.49,349.89l3.87,0.62c-0.16,0.41-0.38,0.82-0.64,1.23c-0.27,0.4-0.67,0.9-1.23,1.49&#10;&#9;&#9;&#9;&#9;c-0.55,0.59-1.3,1.06-2.25,1.42c-0.94,0.36-2.03,0.54-3.25,0.54c-2.35,0-4.26-0.7-5.74-2.11c-1.57-1.48-2.35-3.42-2.35-5.84&#10;&#9;&#9;&#9;&#9;c0-2.4,0.76-4.36,2.28-5.88c1.43-1.4,3.31-2.11,5.63-2.11c2.53,0,4.48,0.82,5.84,2.45c1.2,1.43,1.8,3.39,1.8,5.87v0.35h-11.2&#10;&#9;&#9;&#9;&#9;c0,1.01,0.24,1.86,0.73,2.52c0.69,0.94,1.69,1.42,3.01,1.42C350.57,351.86,351.74,351.2,352.49,349.89z M345.41,345.22h7.08&#10;&#9;&#9;&#9;&#9;c-0.16-0.97-0.58-1.71-1.26-2.23c-0.68-0.52-1.45-0.78-2.3-0.78c-0.83,0-1.58,0.26-2.26,0.79&#10;&#9;&#9;&#9;&#9;C345.99,343.54,345.57,344.28,345.41,345.22z" style="fill: rgb(255, 255, 255);"/>
        <path class="st0" d="M370.98,340.14v4.15c-0.94-0.88-2.1-1.31-3.46-1.31c-1.34,0-2.37,0.41-3.11,1.23&#10;&#9;&#9;&#9;&#9;c-0.74,0.82-1.11,1.81-1.11,2.99c0,1.22,0.41,2.23,1.23,3.04c0.82,0.81,1.86,1.21,3.13,1.21c1.24,0,2.35-0.44,3.32-1.31v4.11&#10;&#9;&#9;&#9;&#9;c-1.24,0.62-2.53,0.93-3.87,0.93c-2.33,0-4.25-0.73-5.77-2.18c-1.59-1.5-2.38-3.41-2.38-5.74c0-2.53,0.86-4.56,2.59-6.08&#10;&#9;&#9;&#9;&#9;c1.45-1.29,3.25-1.93,5.39-1.93C368.39,339.24,369.74,339.54,370.98,340.14z" style="fill: rgb(255, 255, 255);"/>
        <path class="st0" d="M384.88,343.32h-4.15v11.37h-4.22v-11.37h-4.15v-3.59h12.51V343.32z" style="fill: rgb(255, 255, 255);"/>
        <path class="st0" d="M397.9,349.89l3.87,0.62c-0.16,0.41-0.37,0.82-0.64,1.23c-0.27,0.4-0.67,0.9-1.23,1.49&#10;&#9;&#9;&#9;&#9;c-0.55,0.59-1.3,1.06-2.25,1.42c-0.95,0.36-2.03,0.54-3.25,0.54c-2.35,0-4.26-0.7-5.74-2.11c-1.57-1.48-2.35-3.42-2.35-5.84&#10;&#9;&#9;&#9;&#9;c0-2.4,0.76-4.36,2.28-5.88c1.43-1.4,3.31-2.11,5.63-2.11c2.53,0,4.48,0.82,5.84,2.45c1.2,1.43,1.8,3.39,1.8,5.87v0.35h-11.2&#10;&#9;&#9;&#9;&#9;c0,1.01,0.24,1.86,0.73,2.52c0.69,0.94,1.69,1.42,3.01,1.42C395.98,351.86,397.15,351.2,397.9,349.89z M390.82,345.22h7.08&#10;&#9;&#9;&#9;&#9;c-0.16-0.97-0.58-1.71-1.26-2.23c-0.68-0.52-1.45-0.78-2.3-0.78c-0.83,0-1.58,0.26-2.26,0.79&#10;&#9;&#9;&#9;&#9;C391.4,343.54,390.98,344.28,390.82,345.22z" style="fill: rgb(255, 255, 255);"/>
        <path class="st0" d="M413.18,339.73h4.22v5.81l5.6-5.81h5.25l-6.77,6.67l7.12,8.29h-5.39l-5.18-6.19l-0.62,0.62v5.56h-4.22&#10;&#9;&#9;&#9;&#9;V339.73z" style="fill: rgb(255, 255, 255);"/>
        <path class="st0" d="M440.03,343.74l-1.93-2.63c1.57-1.24,3.46-1.87,5.67-1.87c1.68,0,3.01,0.33,3.97,1&#10;&#9;&#9;&#9;&#9;c1.13,0.76,1.69,1.82,1.69,3.18c0,1.38-0.69,2.45-2.07,3.21c0.74,0.19,1.39,0.52,1.97,1c0.76,0.69,1.14,1.61,1.14,2.76&#10;&#9;&#9;&#9;&#9;c0,1.45-0.58,2.6-1.73,3.46c-1.15,0.87-2.79,1.31-4.91,1.31c-2.67,0-4.82-0.83-6.43-2.49l2.07-2.56&#10;&#9;&#9;&#9;&#9;c1.13,1.06,2.47,1.59,4.01,1.59c0.97,0,1.65-0.17,2.04-0.52c0.39-0.35,0.59-0.74,0.59-1.17c0-0.55-0.26-0.97-0.79-1.24&#10;&#9;&#9;&#9;&#9;c-0.37-0.18-0.97-0.28-1.8-0.28h-1.76v-3.04h1.69c0.76,0,1.31-0.12,1.66-0.35c0.35-0.23,0.52-0.58,0.52-1.04&#10;&#9;&#9;&#9;&#9;c0-1.01-0.76-1.52-2.28-1.52C442.06,342.56,440.95,342.95,440.03,343.74z" style="fill: rgb(255, 255, 255);"/>
        <path class="st0" d="M453.71,339.73h6.6c1.59,0,2.77,0.3,3.56,0.9c0.97,0.74,1.45,1.72,1.45,2.94c0,0.64-0.18,1.25-0.53,1.81&#10;&#9;&#9;&#9;&#9;c-0.36,0.56-0.87,0.98-1.54,1.26c0.74,0.14,1.39,0.46,1.97,0.97c0.76,0.69,1.14,1.63,1.14,2.8c0,1.41-0.53,2.51-1.59,3.32&#10;&#9;&#9;&#9;&#9;c-0.88,0.64-1.99,0.97-3.35,0.97h-7.71V339.73z M457.93,345.67h1.93c0.44,0,0.81-0.09,1.11-0.28c0.37-0.23,0.55-0.58,0.55-1.04&#10;&#9;&#9;&#9;&#9;c0-0.48-0.16-0.84-0.48-1.07c-0.23-0.16-0.65-0.24-1.24-0.24h-1.87V345.67z M457.93,351.37h1.97c0.71,0,1.23-0.13,1.56-0.38&#10;&#9;&#9;&#9;&#9;c0.37-0.28,0.55-0.68,0.55-1.21c0-0.48-0.19-0.84-0.55-1.07c-0.32-0.23-0.81-0.35-1.45-0.35h-2.07V351.37z" style="fill: rgb(255, 255, 255);"/>
        <path class="st0" d="M480.29,349.89l3.87,0.62c-0.16,0.41-0.38,0.82-0.64,1.23c-0.27,0.4-0.67,0.9-1.23,1.49&#10;&#9;&#9;&#9;&#9;c-0.55,0.59-1.3,1.06-2.25,1.42c-0.94,0.36-2.03,0.54-3.25,0.54c-2.35,0-4.26-0.7-5.74-2.11c-1.57-1.48-2.35-3.42-2.35-5.84&#10;&#9;&#9;&#9;&#9;c0-2.4,0.76-4.36,2.28-5.88c1.43-1.4,3.31-2.11,5.63-2.11c2.53,0,4.48,0.82,5.84,2.45c1.2,1.43,1.8,3.39,1.8,5.87v0.35h-11.2&#10;&#9;&#9;&#9;&#9;c0,1.01,0.24,1.86,0.73,2.52c0.69,0.94,1.69,1.42,3.01,1.42C478.37,351.86,479.53,351.2,480.29,349.89z M473.21,345.22h7.08&#10;&#9;&#9;&#9;&#9;c-0.16-0.97-0.58-1.71-1.26-2.23c-0.68-0.52-1.45-0.78-2.3-0.78c-0.83,0-1.58,0.26-2.26,0.79&#10;&#9;&#9;&#9;&#9;C473.79,343.54,473.37,344.28,473.21,345.22z" style="fill: rgb(255, 255, 255);"/>
        <path class="st0" d="M489.03,343.74l-1.93-2.63c1.57-1.24,3.46-1.87,5.67-1.87c1.68,0,3.01,0.33,3.97,1&#10;&#9;&#9;&#9;&#9;c1.13,0.76,1.69,1.82,1.69,3.18c0,1.38-0.69,2.45-2.07,3.21c0.74,0.19,1.39,0.52,1.97,1c0.76,0.69,1.14,1.61,1.14,2.76&#10;&#9;&#9;&#9;&#9;c0,1.45-0.58,2.6-1.73,3.46c-1.15,0.87-2.79,1.31-4.91,1.31c-2.67,0-4.82-0.83-6.43-2.49l2.07-2.56&#10;&#9;&#9;&#9;&#9;c1.13,1.06,2.47,1.59,4.01,1.59c0.97,0,1.65-0.17,2.04-0.52c0.39-0.35,0.59-0.74,0.59-1.17c0-0.55-0.26-0.97-0.79-1.24&#10;&#9;&#9;&#9;&#9;c-0.37-0.18-0.97-0.28-1.8-0.28h-1.76v-3.04h1.69c0.76,0,1.31-0.12,1.66-0.35c0.35-0.23,0.52-0.58,0.52-1.04&#10;&#9;&#9;&#9;&#9;c0-1.01-0.76-1.52-2.28-1.52C491.06,342.56,489.95,342.95,489.03,343.74z" style="fill: rgb(255, 255, 255);"/>
        <path class="st0" d="M504.1,339.73h12.44v11.37h2.21v7.95h-3.8v-4.35h-10.3v4.35h-3.8v-7.95c1.17-0.07,2.06-0.7,2.66-1.9&#10;&#9;&#9;&#9;&#9;c0.39-0.85,0.59-2.13,0.59-3.84V339.73z M512.33,351.1v-7.78h-4.42v3.32c0,2.03-0.55,3.51-1.66,4.46H512.33z" style="fill: rgb(255, 255, 255);"/>
        <path class="st0" d="M532.51,341.66v-1.93h4.22v14.96h-4.22v-1.93c-1.13,1.61-2.66,2.42-4.6,2.42c-2.26,0-4.09-0.77-5.51-2.32&#10;&#9;&#9;&#9;&#9;s-2.12-3.43-2.12-5.67c0-2.26,0.69-4.15,2.07-5.67c1.38-1.52,3.17-2.28,5.36-2.28C529.87,339.24,531.47,340.05,532.51,341.66z&#10;&#9;&#9;&#9;&#9; M531.75,344.19c-0.78-0.81-1.77-1.21-2.97-1.21s-2.19,0.4-2.97,1.21c-0.78,0.81-1.18,1.81-1.18,3.01c0,1.2,0.39,2.21,1.18,3.02&#10;&#9;&#9;&#9;&#9;c0.78,0.82,1.77,1.23,2.97,1.23s2.19-0.41,2.97-1.23c0.78-0.82,1.18-1.83,1.18-3.02C532.92,345.99,532.53,344.99,531.75,344.19z" style="fill: rgb(255, 255, 255);"/>
        <path class="st0" d="M539.14,354.69l2.73-15.38h3.11l4.11,9.02l4.11-9.02h3.11l2.73,15.38h-4.22l-1.24-8.12l-3.87,8.43h-1.24&#10;&#9;&#9;&#9;&#9;l-3.87-8.43l-1.24,8.12H539.14z" style="fill: rgb(255, 255, 255);"/>
      </g>
    </g>
  </g>
</svg>